<svg xmlns="http://www.w3.org/2000/svg" xmlns:xlink="http://www.w3.org/1999/xlink" viewBox="0 0 168.7 104.78">
    <linearGradient id="linear-gradient" x1="29.42" y1="48.97" x2="137.31" y2="-58.92"
                    gradientUnits="userSpaceOnUse">
        <stop offset="0" stop-color="#fff"/>
        <stop offset="1" stop-color="#1d1d1b"/>
    </linearGradient>
    <linearGradient id="linear-gradient-2" x1="84.35" y1="0.53" x2="84.35" y2="104.24"
                    gradientUnits="userSpaceOnUse">
        <stop offset="0" stop-color="#cc0000"/>
        <stop offset="1" stop-color="#801815"/>
    </linearGradient>
    <filter id="luminosity-noclip" x="-2.67" y="-70.06" width="172.09" height="167.26" filterUnits="userSpaceOnUse"
            color-interpolation-filters="sRGB">
        <feFlood flood-color="#fff" result="bg"/>
        <feBlend in="SourceGraphic" in2="bg"/>
    </filter>
    <mask id="mask" x="-2.67" y="-70.06" width="172.09" height="167.26" maskUnits="userSpaceOnUse">
        <ellipse opacity="" fill="url(#linear-gradient)" filter="url(#luminosity-noclip)" cx="83.37" cy="-4.97"
                 rx="86.04" ry="65.08"/>
    </mask>
    <path fill="url(#linear-gradient-2)"
          d="M168.17,52.39c0,28.63-37.53,51.85-83.82,51.85S.53,81,.53,52.39,38.06.53,84.35.53,168.17,23.75,168.17,52.39Z"/>
    <path stroke="#801002" stroke-width="1.07px" fill="none"
          d="M168.17,52.39c0,28.63-37.53,51.85-83.82,51.85S.53,81,.53,52.39,38.06.53,84.35.53,168.17,23.75,168.17,52.39Z"/>
    <path fill="#999"
          d="M84.35,96.51c-41.33,0-75-19.79-75-44.12S43,8.27,84.35,8.27s75,19.79,75,44.12S125.69,96.51,84.35,96.51Z"/>
    <path fill="#808080"
          d="M84.35,9c41,0,74.28,19.49,74.28,43.44S125.31,95.82,84.35,95.82,10.08,76.34,10.08,52.39,43.4,9,84.35,9m0-1.37C42.57,7.58,8.7,27.64,8.7,52.39S42.57,97.2,84.35,97.2,160,77.14,160,52.39,126.13,7.58,84.35,7.58Z"/>
    <g mask="url(#mask)">
        <path fill="#1d1d1b"
              d="M84.35,96.51c-41.33,0-75-19.79-75-44.12S43,8.27,84.35,8.27s75,19.79,75,44.12S125.69,96.51,84.35,96.51Z"/>
        <path fill="#808080"
              d="M84.35,9c41,0,74.28,19.49,74.28,43.44S125.31,95.82,84.35,95.82,10.08,76.34,10.08,52.39,43.4,9,84.35,9m0-1.37C42.57,7.58,8.7,27.64,8.7,52.39S42.57,97.2,84.35,97.2,160,77.14,160,52.39,126.13,7.58,84.35,7.58Z"/>
    </g>
    <line stroke="#b31218" stroke-width="2.29px" fill="none" x1="43.5" y1="66.5" x2="125.25" y2="66.5"/>
    <g opacity="0.75">
        <path fill="#1d1d1b"
              d="M46.52,50.93V44.45H59.61c2.36,0,3.2-.3,3.49-.47a1.93,1.93,0,0,0,1-1.8,2.17,2.17,0,0,0-1.2-2.1,5.62,5.62,0,0,0-2.6-.41h-5c-3.27,0-5.6-.6-7.1-1.84A8,8,0,0,1,46,34.89a9.19,9.19,0,0,1-.78-3.72,9.58,9.58,0,0,1,1.81-5.65,7.64,7.64,0,0,1,5.77-3c.84-.09,2.07-.13,3.67-.13H70.64v6.48H57.79a17.49,17.49,0,0,0-3.38.22c-.57.14-1.15.48-1.15,1.9a1.69,1.69,0,0,0,1,1.81,8.08,8.08,0,0,0,3,.38H61.6a16.42,16.42,0,0,1,5.21.62,7,7,0,0,1,4.41,3.84,11,11,0,0,1,.93,4.51A9.48,9.48,0,0,1,70.92,47a7.25,7.25,0,0,1-5.33,3.7,30.76,30.76,0,0,1-4.74.27Z"/>
        <path fill="#1d1d1b"
              d="M69.79,23.26V28h-12a18.28,18.28,0,0,0-3.58.24C53,28.57,52.4,29.48,52.4,31a2.56,2.56,0,0,0,1.52,2.59,9,9,0,0,0,3.37.45H61.6a15.94,15.94,0,0,1,4.93.57A6.16,6.16,0,0,1,70.44,38a10.27,10.27,0,0,1,.86,4.17,8.6,8.6,0,0,1-1.12,4.38,6.45,6.45,0,0,1-4.73,3.28,30.53,30.53,0,0,1-4.6.25H47.37V45.3H59.61a8.67,8.67,0,0,0,3.93-.59A2.77,2.77,0,0,0,65,42.18a3,3,0,0,0-1.65-2.85,6.68,6.68,0,0,0-3-.51h-5q-4.56,0-6.56-1.65a7.12,7.12,0,0,1-2-2.63,8.14,8.14,0,0,1-.7-3.37A8.76,8.76,0,0,1,47.75,26a6.82,6.82,0,0,1,5.16-2.64c.8-.07,2-.11,3.58-.11h13.3m1.7-1.71h-15c-1.65,0-2.87,0-3.74.13A8.47,8.47,0,0,0,46.36,25a10.45,10.45,0,0,0-2,6.15,9.87,9.87,0,0,0,.86,4.07,8.74,8.74,0,0,0,2.43,3.24c1.67,1.38,4.17,2,7.65,2h5a5,5,0,0,1,2.19.31,1.32,1.32,0,0,1,.76,1.35,1.09,1.09,0,0,1-.58,1.07,7.6,7.6,0,0,1-3.06.34H45.67v8.19H60.85a31.29,31.29,0,0,0,4.88-.28,8,8,0,0,0,5.93-4.12A10.36,10.36,0,0,0,73,42.16a11.88,11.88,0,0,0-1-4.86A7.82,7.82,0,0,0,67.07,33a17,17,0,0,0-5.47-.66H57.29A7.29,7.29,0,0,1,54.61,32c-.21-.09-.5-.22-.5-1s.27-1,.51-1.08a16.72,16.72,0,0,1,3.18-.18H71.49V21.55Z"/>
        <polygon fill="#1d1d1b"
                 points="90.64 50.93 90.64 39.83 81.98 39.83 81.98 50.93 74.57 50.93 74.57 22.4 81.98 22.4 81.98 33.35 90.64 33.35 90.64 22.4 98.05 22.4 98.05 50.93 90.64 50.93"/>
        <path fill="#1d1d1b"
              d="M97.2,23.26V50.07H91.5V39H81.12v11.1H75.43V23.26h5.69V34.2H91.5V23.26h5.7m1.7-1.71H89.79V32.49h-7V21.55H73.72V51.78h9.11V40.68h7v11.1H98.9V21.55Z"/>
        <path fill="#1d1d1b"
              d="M101.82,50.93V22.4h12.23a20.87,20.87,0,0,1,6.89.9,9.81,9.81,0,0,1,6.26,6.26,22.23,22.23,0,0,1,1.14,7.15,23,23,0,0,1-1.08,7.12,9.38,9.38,0,0,1-3.83,5.31,10.15,10.15,0,0,1-3.65,1.44,34.63,34.63,0,0,1-5.73.35Zm12.23-6.48c2.22,0,3.75-.47,4.54-1.38a6.65,6.65,0,0,0,1.25-2.59,13.74,13.74,0,0,0,.51-3.8,13.34,13.34,0,0,0-.6-4.09A5.82,5.82,0,0,0,118.29,30a6.4,6.4,0,0,0-4.24-1.14h-4.82V44.45Z"/>
        <path fill="#1d1d1b"
              d="M114.05,23.26a20.34,20.34,0,0,1,6.6.84,9,9,0,0,1,5.74,5.74,21.1,21.1,0,0,1,1.1,6.87,22.29,22.29,0,0,1-1,6.86A8.56,8.56,0,0,1,123,48.42a9.11,9.11,0,0,1-3.35,1.32,34.1,34.1,0,0,1-5.57.33H102.68V23.26h11.37m-5.68,22h5.68q3.74,0,5.19-1.67a7.57,7.57,0,0,0,1.42-2.92,14.64,14.64,0,0,0,.54-4,14,14,0,0,0-.64-4.35,6.64,6.64,0,0,0-1.69-2.94A7.13,7.13,0,0,0,114.05,28h-5.68V45.3m5.68-23.75H101V51.78h13.08a35.36,35.36,0,0,0,5.88-.36,11,11,0,0,0,4-1.56,10.18,10.18,0,0,0,4.18-5.78,23.64,23.64,0,0,0,1.12-7.37A22.91,22.91,0,0,0,128,29.28a10.57,10.57,0,0,0-6.77-6.78,21.5,21.5,0,0,0-7.18-.95Zm-4,8.19h4a5.71,5.71,0,0,1,3.69.93,5.19,5.19,0,0,1,1.2,2.19,12.45,12.45,0,0,1,.56,3.82,12.76,12.76,0,0,1-.48,3.56A6,6,0,0,1,118,42.51c-.62.71-2,1.08-3.9,1.08h-4V29.74Z"/>
    </g>
    <path fill="#fff"
          d="M44.1,48.51V42H57.19c2.36,0,3.2-.29,3.49-.47a1.91,1.91,0,0,0,1-1.8,2.18,2.18,0,0,0-1.2-2.1,5.62,5.62,0,0,0-2.6-.41h-5c-3.27,0-5.59-.6-7.1-1.84a7.88,7.88,0,0,1-2.2-2.94,9,9,0,0,1-.79-3.71,9.61,9.61,0,0,1,1.81-5.66,7.67,7.67,0,0,1,5.78-3c.83-.08,2.06-.12,3.66-.12H68.22v6.48H55.37a17.05,17.05,0,0,0-3.38.21c-.57.14-1.15.48-1.15,1.9,0,1.21.53,1.61,1,1.81a7.93,7.93,0,0,0,3,.38h4.3a16.38,16.38,0,0,1,5.21.62,7,7,0,0,1,4.41,3.84,11,11,0,0,1,.94,4.51,9.46,9.46,0,0,1-1.24,4.8,7.23,7.23,0,0,1-5.33,3.7,30.76,30.76,0,0,1-4.74.27Z"/>
    <path fill="#575756"
          d="M67.37,20.84v4.77h-12a19.14,19.14,0,0,0-3.58.24c-1.21.3-1.81,1.21-1.81,2.73a2.56,2.56,0,0,0,1.52,2.59,9.07,9.07,0,0,0,3.38.45h4.3a15.94,15.94,0,0,1,4.93.57A6.19,6.19,0,0,1,68,35.57a10.11,10.11,0,0,1,.86,4.17,8.7,8.7,0,0,1-1.11,4.38A6.43,6.43,0,0,1,63,47.4a30.25,30.25,0,0,1-4.6.26H45V42.88H57.19a8.67,8.67,0,0,0,3.93-.59,2.75,2.75,0,0,0,1.42-2.53,3,3,0,0,0-1.65-2.85,6.65,6.65,0,0,0-3-.51h-5c-3,0-5.22-.55-6.56-1.65a7.15,7.15,0,0,1-2-2.62,8.06,8.06,0,0,1-.71-3.37,8.76,8.76,0,0,1,1.65-5.17A6.82,6.82,0,0,1,50.5,21c.79-.08,2-.12,3.57-.12h13.3m1.71-1.71h-15c-1.65,0-2.87,0-3.74.13a8.47,8.47,0,0,0-6.39,3.34,10.46,10.46,0,0,0-2,6.16,9.86,9.86,0,0,0,.86,4.06,8.74,8.74,0,0,0,2.43,3.24c1.67,1.38,4.17,2,7.65,2h5a5.09,5.09,0,0,1,2.2.31,1.34,1.34,0,0,1,.75,1.35,1.09,1.09,0,0,1-.58,1.07,7.41,7.41,0,0,1-3.06.35H43.25v8.18H58.43a31.29,31.29,0,0,0,4.88-.28A8.08,8.08,0,0,0,69.25,45a10.36,10.36,0,0,0,1.34-5.23,11.92,11.92,0,0,0-1-4.86,7.83,7.83,0,0,0-4.92-4.3,17.41,17.41,0,0,0-5.48-.66h-4.3a7.33,7.33,0,0,1-2.69-.31c-.21-.09-.5-.22-.5-1s.27-1,.52-1.08a18.82,18.82,0,0,1,3.17-.18h13.7V19.13Z"/>
    <polygon fill="#fff" stroke="#999"
             points="88.23 48.51 88.23 37.41 79.56 37.41 79.56 48.51 72.16 48.51 72.16 19.99 79.56 19.99 79.56 30.93 88.23 30.93 88.23 19.99 95.63 19.99 95.63 48.51 88.23 48.51"/>
    <path fill="#575756"
          d="M94.78,20.84V47.66h-5.7V36.55H78.71V47.66H73V20.84h5.7V31.78H89.08V20.84h5.7m1.7-1.71H87.37v11h-7V19.13H71.3V49.36h9.11V38.26h7v11.1h9.11V19.13Z"/>
    <path fill="#fff"
          d="M99.4,48.51V20h12.23a20.87,20.87,0,0,1,6.89.89,9.81,9.81,0,0,1,6.26,6.26,22,22,0,0,1,1.14,7.16,23.07,23.07,0,0,1-1.08,7.12,9.36,9.36,0,0,1-3.83,5.3,10.15,10.15,0,0,1-3.65,1.44,34.63,34.63,0,0,1-5.73.35ZM111.63,42c2.22,0,3.75-.47,4.55-1.38a6.79,6.79,0,0,0,1.24-2.59,13.74,13.74,0,0,0,.51-3.8,13.23,13.23,0,0,0-.6-4.08,5.77,5.77,0,0,0-1.46-2.58,6.37,6.37,0,0,0-4.24-1.13h-4.82V42Z"/>
    <path fill="#575756"
          d="M111.63,20.84a20.34,20.34,0,0,1,6.6.84A9,9,0,0,1,124,27.42a21.16,21.16,0,0,1,1.1,6.88,22.27,22.27,0,0,1-1,6.85A8.47,8.47,0,0,1,120.55,46a9.11,9.11,0,0,1-3.35,1.32,33.85,33.85,0,0,1-5.57.34H100.26V20.84h11.37m-5.67,22h5.67q3.74,0,5.19-1.67a7.57,7.57,0,0,0,1.42-2.92,15.29,15.29,0,0,0-.09-8.37,6.72,6.72,0,0,0-1.7-3,7.13,7.13,0,0,0-4.82-1.36H106V42.88m5.67-23.75H98.55V49.36h13.08a35.36,35.36,0,0,0,5.88-.36,10.91,10.91,0,0,0,4-1.56,10.25,10.25,0,0,0,4.19-5.77,24,24,0,0,0,1.12-7.37,22.83,22.83,0,0,0-1.2-7.43,10.58,10.58,0,0,0-6.77-6.79,21.5,21.5,0,0,0-7.18-.95Zm-4,8.19h4a5.71,5.71,0,0,1,3.69.93,5.14,5.14,0,0,1,1.2,2.19,12.45,12.45,0,0,1,.56,3.82,12.76,12.76,0,0,1-.48,3.56,5.93,5.93,0,0,1-1.07,2.27c-.62.71-2,1.09-3.9,1.09h-4V27.32Z"/>
    <path fill="#fff"
          d="M46.55,74a1.44,1.44,0,0,0-.17-.87,1.35,1.35,0,0,0-.84-.17h-2.1v-.71h2.3a3.54,3.54,0,0,1,.91.09,1.12,1.12,0,0,1,.51.32,1.23,1.23,0,0,1,.22.46,3.83,3.83,0,0,1,.06.78v2.82H45.18a5.14,5.14,0,0,1-.86-.05,1.25,1.25,0,0,1-.78-.43,1.33,1.33,0,0,1-.27-.87,1.6,1.6,0,0,1,.15-.7,1.18,1.18,0,0,1,.41-.47A2.22,2.22,0,0,1,45,74Zm0,.7H45.07a1.57,1.57,0,0,0-.57.08.56.56,0,0,0-.31.58.61.61,0,0,0,.2.51,1.16,1.16,0,0,0,.68.15h1.48Z"/>
    <path fill="#fff"
          d="M51.6,72.29V70.64h.89v6.12h-2a3.92,3.92,0,0,1-.94-.09,1.34,1.34,0,0,1-.59-.31,1.65,1.65,0,0,1-.47-.72,2.9,2.9,0,0,1-.18-1,3.18,3.18,0,0,1,.26-1.28,1.6,1.6,0,0,1,.72-.79,2.68,2.68,0,0,1,1.27-.25Zm0,3.77V73h-1a2,2,0,0,0-.71.1,1,1,0,0,0-.43.35,1.86,1.86,0,0,0-.26,1.06,1.92,1.92,0,0,0,.29,1.2,1.17,1.17,0,0,0,1,.35Z"/>
    <path fill="#fff" d="M55.52,75.61,57,72.29h.94l-2.07,4.47h-.71l-2-4.47h1Z"/>
    <path fill="#fff"
          d="M61.63,74a1.37,1.37,0,0,0-.17-.87,1.31,1.31,0,0,0-.83-.17h-2.1v-.71h2.29a3.49,3.49,0,0,1,.91.09,1.07,1.07,0,0,1,.51.32,1.09,1.09,0,0,1,.22.46,3.83,3.83,0,0,1,.06.78v2.82H60.26a4.91,4.91,0,0,1-.85-.05,1.25,1.25,0,0,1-.78-.43,1.33,1.33,0,0,1-.27-.87,1.75,1.75,0,0,1,.14-.7,1.13,1.13,0,0,1,.42-.47A2.18,2.18,0,0,1,60,74Zm0,.7H60.15a1.61,1.61,0,0,0-.57.08.57.57,0,0,0-.31.58.61.61,0,0,0,.2.51,1.18,1.18,0,0,0,.68.15h1.48Z"/>
    <path fill="#fff"
          d="M63.73,72.29H65.8a2.88,2.88,0,0,1,.93.13,1.22,1.22,0,0,1,.57.42,2,2,0,0,1,.3,1.26v2.66h-.89V74.19a1.37,1.37,0,0,0-.23-.93,1,1,0,0,0-.82-.26h-1v3.76h-.89Z"/>
    <path fill="#fff"
          d="M72.18,72.29V73H70.76a2.11,2.11,0,0,0-.68.09.92.92,0,0,0-.4.33,1.9,1.9,0,0,0-.26,1.11,1.71,1.71,0,0,0,.37,1.25,1.35,1.35,0,0,0,1,.28h1.42v.7H70.76a3.86,3.86,0,0,1-1.09-.12,1.54,1.54,0,0,1-1-.94,2.82,2.82,0,0,1-.21-1.09,2.48,2.48,0,0,1,.58-1.73,1.76,1.76,0,0,1,.68-.45,3.08,3.08,0,0,1,1-.14Z"/>
    <path fill="#fff"
          d="M76.44,74.12v.7H73.76a1.25,1.25,0,0,0,.31.94.81.81,0,0,0,.39.23,2.92,2.92,0,0,0,.69.07h1.29v.7H74.91a3.42,3.42,0,0,1-.89-.09,1.32,1.32,0,0,1-.57-.31,2.24,2.24,0,0,1-.64-1.75,2.15,2.15,0,0,1,1-2,2.67,2.67,0,0,1,1.37-.31h1.29V73H75.28a2.71,2.71,0,0,0-.72.07,1,1,0,0,0-.44.25,1.33,1.33,0,0,0-.36.8Z"/>
    <path fill="#fff"
          d="M80.44,72.29V70.64h.89v6.12h-2a3.83,3.83,0,0,1-.93-.09,1.34,1.34,0,0,1-.59-.31,1.75,1.75,0,0,1-.48-.72,3.13,3.13,0,0,1-.17-1,3.18,3.18,0,0,1,.26-1.28,1.55,1.55,0,0,1,.72-.79,2.65,2.65,0,0,1,1.27-.25Zm0,3.77V73h-1a2,2,0,0,0-.71.1.91.91,0,0,0-.43.35,1.86,1.86,0,0,0-.26,1.06,1.92,1.92,0,0,0,.28,1.2,1.19,1.19,0,0,0,1,.35Z"/>
    <path fill="#fff"
          d="M88.26,72.29V73H86.84a2,2,0,0,0-.67.09.89.89,0,0,0-.41.33,2,2,0,0,0-.26,1.11,1.71,1.71,0,0,0,.37,1.25,1.37,1.37,0,0,0,1,.28h1.42v.7H86.84a3.91,3.91,0,0,1-1.09-.12,1.55,1.55,0,0,1-1-.94,2.66,2.66,0,0,1-.22-1.09,2.49,2.49,0,0,1,.59-1.73,1.69,1.69,0,0,1,.68-.45,3,3,0,0,1,1-.14Z"/>
    <path fill="#fff"
          d="M91.22,72.24a2.2,2.2,0,0,1,1.67.62,2.74,2.74,0,0,1,0,3.32,2.69,2.69,0,0,1-3.48,0,2.19,2.19,0,0,1-.52-1.56,2.49,2.49,0,0,1,.58-1.71A2.3,2.3,0,0,1,91.22,72.24Zm0,.74a1.24,1.24,0,0,0-1,.41,1.73,1.73,0,0,0-.35,1.16,1.71,1.71,0,0,0,.29,1.07,1.27,1.27,0,0,0,1.05.45c.92,0,1.39-.5,1.39-1.5a1.75,1.75,0,0,0-.36-1.18A1.26,1.26,0,0,0,91.17,73Z"/>
    <path fill="#fff"
          d="M94.41,72.29h4a6.49,6.49,0,0,1,1.1.06,1.15,1.15,0,0,1,.53.26,1.1,1.1,0,0,1,.34.51,2.87,2.87,0,0,1,.1.88v2.76h-.89V74a1.09,1.09,0,0,0-.22-.78,1.11,1.11,0,0,0-.79-.22h-.69v3.76H97V73H95.3v3.76h-.89Z"/>
    <path fill="#fff"
          d="M101.61,72.29h1.84a3.71,3.71,0,0,1,1,.11,1.61,1.61,0,0,1,.64.43,2.44,2.44,0,0,1,.53,1.69,3.06,3.06,0,0,1-.18,1.06,1.91,1.91,0,0,1-.5.78,1.29,1.29,0,0,1-.58.32,5.08,5.08,0,0,1-1.05.08h-.85v1.42h-.89Zm.89.71v3.06h.85a1.39,1.39,0,0,0,1-.3,1.87,1.87,0,0,0,.35-1.3,1.61,1.61,0,0,0-.32-1.12,1.42,1.42,0,0,0-1.07-.34Z"/>
    <path fill="#fff"
          d="M108.63,72.24a2.23,2.23,0,0,1,1.67.62,2.36,2.36,0,0,1,.56,1.69,2.28,2.28,0,0,1-.57,1.63,2.25,2.25,0,0,1-1.71.63,2.3,2.3,0,0,1-1.77-.65,2.19,2.19,0,0,1-.51-1.56,2.45,2.45,0,0,1,.58-1.71A2.28,2.28,0,0,1,108.63,72.24Zm-.06.74a1.22,1.22,0,0,0-1,.41,1.68,1.68,0,0,0-.35,1.16,1.71,1.71,0,0,0,.28,1.07,1.29,1.29,0,0,0,1.06.45q1.38,0,1.38-1.5a1.8,1.8,0,0,0-.35-1.18A1.28,1.28,0,0,0,108.57,73Z"/>
    <path fill="#fff"
          d="M115.45,72.29V73h-2a4.23,4.23,0,0,0-.6,0,.3.3,0,0,0-.21.1.68.68,0,0,0-.16.51.49.49,0,0,0,.17.44,1.59,1.59,0,0,0,.72.1h.6c.5,0,.8,0,.91,0a.72.72,0,0,1,.32.11,1.58,1.58,0,0,1-.12,2.32,1.06,1.06,0,0,1-.37.1,6.14,6.14,0,0,1-.74,0H111.6v-.7h2.15a2.61,2.61,0,0,0,.75-.06c.15-.07.22-.23.22-.5s-.09-.46-.27-.5a3.7,3.7,0,0,0-.64,0h-.37a6.47,6.47,0,0,1-1,0,.78.78,0,0,1-.44-.2,1.32,1.32,0,0,1-.48-1.11,1.41,1.41,0,0,1,.16-.69,1,1,0,0,1,.43-.45,2.4,2.4,0,0,1,1.07-.18Z"/>
    <path fill="#fff" d="M116.65,71.57v-.93h.88v.93Zm0,.72h.88v4.47h-.88Z"/>
    <path fill="#fff"
          d="M119.18,72.29V70.64h.88v1.65h1.31V73h-1.31v2.34a1.94,1.94,0,0,0,0,.41.28.28,0,0,0,.11.18,1.08,1.08,0,0,0,.64.13h.53v.7h-.86a2.53,2.53,0,0,1-.65-.06.72.72,0,0,1-.38-.21.92.92,0,0,1-.24-.39,3,3,0,0,1-.06-.68V73h-.85v-.71Z"/>
    <path fill="#fff"
          d="M125.43,74.12v.7h-2.68a1.33,1.33,0,0,0,.31.94.84.84,0,0,0,.4.23,2.89,2.89,0,0,0,.68.07h1.29v.7H123.9a3.42,3.42,0,0,1-.89-.09,1.45,1.45,0,0,1-.57-.31,2.27,2.27,0,0,1-.63-1.75,2.16,2.16,0,0,1,1-2,2.7,2.7,0,0,1,1.37-.31h1.29V73h-1.16a2.71,2.71,0,0,0-.72.07,1.07,1.07,0,0,0-.44.25,1.45,1.45,0,0,0-.36.8Z"/>
    <path fill="#fff"
          d="M66.08,82h4a6.49,6.49,0,0,1,1.1.06,1.14,1.14,0,0,1,.53.26,1.18,1.18,0,0,1,.34.51,3.16,3.16,0,0,1,.1.88v2.76h-.89V83.66a1.1,1.1,0,0,0-.23-.79,1.15,1.15,0,0,0-.79-.22H69.5v3.77h-.89V82.65H67v3.77h-.89Z"/>
    <path fill="#fff"
          d="M76.31,83.69a1.43,1.43,0,0,0-.17-.86,1.29,1.29,0,0,0-.84-.18H73.2V82h2.3a3.54,3.54,0,0,1,.91.09,1,1,0,0,1,.51.32,1.16,1.16,0,0,1,.22.46,3.72,3.72,0,0,1,.06.77v2.83H74.94a5.14,5.14,0,0,1-.86,0,1.25,1.25,0,0,1-.78-.43,1.37,1.37,0,0,1-.27-.87,1.6,1.6,0,0,1,.15-.7,1.14,1.14,0,0,1,.41-.48,2.34,2.34,0,0,1,1.13-.2Zm0,.71H74.83a1.46,1.46,0,0,0-.58.08.56.56,0,0,0-.3.58.57.57,0,0,0,.2.5,1.16,1.16,0,0,0,.68.15h1.48Z"/>
    <path fill="#fff"
          d="M78.78,82V80.3h.89V82H81v.7h-1.3V85a2.13,2.13,0,0,0,0,.41.33.33,0,0,0,.11.18,1.12,1.12,0,0,0,.65.12H81v.71h-.86a2.59,2.59,0,0,1-.65-.06.76.76,0,0,1-.38-.21.84.84,0,0,1-.23-.4,2.36,2.36,0,0,1-.07-.67V82.65h-.85V82Z"/>
    <path fill="#fff"
          d="M85,83.77v.71H82.35a1.29,1.29,0,0,0,.31.93.86.86,0,0,0,.4.24,3,3,0,0,0,.69.06H85v.71H83.5a3.48,3.48,0,0,1-.89-.09A1.35,1.35,0,0,1,82,86a2.23,2.23,0,0,1-.63-1.74,2.15,2.15,0,0,1,1-2A2.55,2.55,0,0,1,83.75,82H85v.7H83.88a3.21,3.21,0,0,0-.72.07,1,1,0,0,0-.44.26,1.36,1.36,0,0,0-.37.79Z"/>
    <path fill="#fff"
          d="M86.08,82h1.15a3.63,3.63,0,0,1,.85.08,1.11,1.11,0,0,1,.52.26.94.94,0,0,1,.28.46,3,3,0,0,1,.08.78V84h-.84v-.44a1,1,0,0,0-.16-.66.89.89,0,0,0-.64-.18H87v3.73h-.89Z"/>
    <path fill="#fff" d="M89.69,81.23V80.3h.88v.93Zm0,.72h.88v4.47h-.88Z"/>
    <path fill="#fff"
          d="M94.86,83.69a1.34,1.34,0,0,0-.18-.86,1.24,1.24,0,0,0-.83-.18h-2.1V82H94A3.63,3.63,0,0,1,95,82a1,1,0,0,1,.5.32,1,1,0,0,1,.22.46,3.72,3.72,0,0,1,.06.77v2.83H93.49a5.05,5.05,0,0,1-.86,0,1.25,1.25,0,0,1-.78-.43,1.37,1.37,0,0,1-.27-.87,1.6,1.6,0,0,1,.15-.7,1,1,0,0,1,.41-.48,2.31,2.31,0,0,1,1.13-.2Zm0,.71H93.37a1.44,1.44,0,0,0-.57.08.56.56,0,0,0-.3.58.55.55,0,0,0,.2.5,1.12,1.12,0,0,0,.67.15h1.49Z"/>
    <path fill="#fff" d="M97.84,86.42H97V80.3h.89Z"/>
    <path fill="#fff"
          d="M102.75,82v.7h-2c-.31,0-.51,0-.6,0a.42.42,0,0,0-.22.11.7.7,0,0,0-.15.5c0,.23,0,.37.17.44a1.53,1.53,0,0,0,.71.11h.61c.49,0,.79,0,.91,0a.78.78,0,0,1,.32.12,1.19,1.19,0,0,1,.45,1.11,1.23,1.23,0,0,1-.57,1.21,1.34,1.34,0,0,1-.37.1,6.14,6.14,0,0,1-.74,0H98.9v-.71H101a2.66,2.66,0,0,0,.76-.06c.15-.06.22-.23.22-.5s-.09-.45-.27-.49a2.7,2.7,0,0,0-.65,0h-.36a6.94,6.94,0,0,1-1,0,.92.92,0,0,1-.45-.2,1.34,1.34,0,0,1-.47-1.11,1.41,1.41,0,0,1,.16-.69.9.9,0,0,1,.43-.45,2.37,2.37,0,0,1,1.07-.18Z"/>
    <path fill="#fff"
          d="M50.14,53.76v1.52H47.8a2.12,2.12,0,0,0-1.64.53,2.23,2.23,0,0,0-.43,1.51A1.91,1.91,0,0,0,46.44,59a1.76,1.76,0,0,0,.64.29,4,4,0,0,0,1,.08h2.11v1.52H47.47a5.26,5.26,0,0,1-1.71-.22,2.73,2.73,0,0,1-1.12-.76,3.79,3.79,0,0,1-.91-2.59,3.54,3.54,0,0,1,1.1-2.84,2.62,2.62,0,0,1,1.05-.54,6.33,6.33,0,0,1,1.59-.16Z"/>
    <path fill="#fff"
          d="M55.37,53.65a3.56,3.56,0,0,1,2.91,1.14,4,4,0,0,1,.86,2.62,3.45,3.45,0,0,1-1.08,2.66,3.9,3.9,0,0,1-2.72.91,3.78,3.78,0,0,1-2.8-1,3.69,3.69,0,0,1-.92-2.69,3.55,3.55,0,0,1,.89-2.49A3.71,3.71,0,0,1,55.37,53.65Zm0,1.5c-1.17,0-1.76.73-1.76,2.19a2.62,2.62,0,0,0,.29,1.36,1.61,1.61,0,0,0,1.49.78c1.16,0,1.74-.72,1.74-2.17S56.55,55.17,55.38,55.15Z"/>
    <path fill="#fff"
          d="M61,53.76h7.19a6.18,6.18,0,0,1,1.49.14,1.82,1.82,0,0,1,.85.52,2.7,2.7,0,0,1,.64,1.92v4.53H69.26V56.65a3.61,3.61,0,0,0-.05-.71.79.79,0,0,0-.2-.37,1.3,1.3,0,0,0-.92-.29h-1v5.59h-2V55.28H63v5.59H61Z"/>
    <path fill="#fff"
          d="M73.46,53.76h3.42a7.06,7.06,0,0,1,1.51.12,2.55,2.55,0,0,1,1,.49,3.63,3.63,0,0,1,1.27,3.06A3.51,3.51,0,0,1,79.7,60a2.74,2.74,0,0,1-1.07.69,4.28,4.28,0,0,1-1.48.22H75.42v2.68h-2Zm2,1.52v4.07h1.2A2.05,2.05,0,0,0,78,59a2.18,2.18,0,0,0,.61-1.67,2,2,0,0,0-.49-1.48,1.78,1.78,0,0,0-1.39-.52Z"/>
    <path fill="#fff"
          d="M85.79,53.65a3.54,3.54,0,0,1,2.91,1.14,4,4,0,0,1,.87,2.62,3.42,3.42,0,0,1-1.09,2.66,3.88,3.88,0,0,1-2.71.91A3.76,3.76,0,0,1,83,60,3.65,3.65,0,0,1,82,57.27a3.6,3.6,0,0,1,.89-2.49A3.72,3.72,0,0,1,85.79,53.65Zm0,1.5c-1.18,0-1.76.73-1.76,2.19a2.63,2.63,0,0,0,.28,1.36,1.63,1.63,0,0,0,1.49.78c1.16,0,1.74-.72,1.74-2.17S87,55.17,85.81,55.15Z"/>
    <path fill="#fff"
          d="M97.63,53.76v1.52H94.16a2.82,2.82,0,0,0-.75.06c-.23.07-.34.26-.34.57a.63.63,0,0,0,.32.57,2.17,2.17,0,0,0,1,.12H95.5a2.86,2.86,0,0,1,1.75.48A1.8,1.8,0,0,1,98,58.62,2.47,2.47,0,0,1,97.53,60a1.57,1.57,0,0,1-.79.67,5.07,5.07,0,0,1-1.53.16h-4V59.35h3.48c.43,0,.73,0,.89,0a.53.53,0,0,0,.52-.58.61.61,0,0,0-.35-.61,2.39,2.39,0,0,0-.85-.09H93.66A4.78,4.78,0,0,1,92.6,58a2.09,2.09,0,0,1-.7-.31,2,2,0,0,1-.62-.77,2.51,2.51,0,0,1-.23-1.05,2.08,2.08,0,0,1,.78-1.7,2.64,2.64,0,0,1,1.62-.37Z"/>
    <path fill="#fff" d="M99.92,53v-1.9h2V53Zm0,.73h2v7.11h-2Z"/>
    <path fill="#fff"
          d="M104.76,53.76V51.13h1.95v2.63h1.81v1.52h-1.81v2.58a2.52,2.52,0,0,0,.16,1.14,1,1,0,0,0,.88.35h.77v1.52H107.1a2.31,2.31,0,0,1-1.81-.61,3.18,3.18,0,0,1-.53-2.06V55.28h-1.25V53.76Z"/>
    <path fill="#fff"
          d="M116,56.55v1.52h-4.12a1.26,1.26,0,0,0,.45,1,2.14,2.14,0,0,0,1.28.29H116v1.52h-2.6a5.31,5.31,0,0,1-1.39-.15,3,3,0,0,1-1-.51,3.52,3.52,0,0,1-1.3-3,3.76,3.76,0,0,1,.69-2.26,2.64,2.64,0,0,1,1.13-.93,4.35,4.35,0,0,1,1.72-.28H116v1.52h-2.6a1.8,1.8,0,0,0-1.13.27,1.39,1.39,0,0,0-.39,1Z"/>
    <path fill="#fff"
          d="M124.18,53.76v1.52h-3.47a2.82,2.82,0,0,0-.75.06c-.23.07-.34.26-.34.57a.63.63,0,0,0,.32.57,2.17,2.17,0,0,0,1,.12h1.16a2.83,2.83,0,0,1,1.74.48,1.78,1.78,0,0,1,.72,1.54,2.55,2.55,0,0,1-.43,1.42,1.57,1.57,0,0,1-.79.67,5.1,5.1,0,0,1-1.54.16h-4V59.35h3.48c.43,0,.73,0,.88,0a.53.53,0,0,0,.53-.58.61.61,0,0,0-.35-.61,2.43,2.43,0,0,0-.85-.09h-1.19a4.78,4.78,0,0,1-1.06-.09,2.09,2.09,0,0,1-.7-.31,2,2,0,0,1-.62-.77,2.51,2.51,0,0,1-.23-1.05,2.08,2.08,0,0,1,.78-1.7,2.64,2.64,0,0,1,1.62-.37Z"/>
</svg>